<?xml version="1.0" encoding="iso-8859-1"?>
<!-- Generator: Adobe Illustrator 19.0.0, SVG Export Plug-In . SVG Version: 6.00 Build 0)  -->
<svg version="1.1" id="Capa_1" xmlns="http://www.w3.org/2000/svg" xmlns:xlink="http://www.w3.org/1999/xlink" x="0px" y="0px"
	 viewBox="0 0 512 512" style="enable-background:new 0 0 512 512;" xml:space="preserve">
<path style="fill:#3A426B;" d="M60.937,226.242c-15.498,41.973-18.516,92.026,14.691,118.004l36.798-1.065
	C115,283.478,85.399,246.67,60.937,226.242z"/>
<path style="fill:#B3674A;" d="M492.232,305.571c-1.91-5.97-4.62-10.98-4.62-10.98c-11.52-11.52-19.76-7.12-59.209,0.77
	c-100.299,20.06-169.948-80.979-198.658-109.999l-20-79.999H72.09v57.655l0.18,0.09c0.02-0.03,0.04-0.06,0.05-0.09
	c2.523,2.54,66.263,30.208,80.009,102.372c3.992,20.958,21.393,36.745,42.642,38.647c9.741,0.872,18.942,1.799,24.507,2.61
	c46.35,6.75,96.759,14.17,141.149,16.75c47.706,2.775,96.136-0.046,132.272-15.271C492.728,307.294,492.509,306.443,492.232,305.571
	z"/>
<path style="fill:#3A426B;" d="M88.086,345.361h-7.34v59.999h88.999c0,0,0-15.88-0.02-16.89
	c108.089,16.35,244.518,37.03,323.107-15.38c9.19-6.12,11.68-18.54,5.55-27.73l-11.09-16.64l-16.64,11.09
	c-69.204,46.131-209.904,21.357-293.517,9.18c-16.46-2.4-32.4-4.71-47.39-6.69l-17.32,0.88L88.086,345.361z"/>
<path d="M149.995,155.363c5.52,0,10-4.48,10-10c0-5.52-4.48-10-10-10c-5.52,0-10,4.48-10,10
	C139.995,150.883,144.475,155.363,149.995,155.363z"/>
<path d="M506.953,339.815l-7.455-11.186c4.301-7.92,5.266-17.442,2.509-26.105c-1.063-3.322-4.46-12.389-7.073-15.004
	c-13.525-13.524-25.502-10.978-51.744-5.395c-4.815,1.024-10.272,2.185-16.497,3.43c-90.448,18.087-154.894-70.845-187.647-105.221
	l-19.349-77.396c-1.112-4.452-5.112-7.575-9.701-7.575H29.997c-5.522,0-10,4.477-10,10v98.171
	c-12.45,25.758-19.539,53.157-19.976,77.459c-0.461,25.599,6.484,46.81,20.21,62.231c-0.15,0.689-0.234,1.402-0.234,2.136v59.999
	c0,5.523,4.478,10,10,10h139.999c5.522,0,10-4.477,10-10c0-1.145,0-3.087-0.001-5.264c53.849,8.109,113.268,16.542,169.121,16.541
	c56.692-0.001,109.723-8.69,149.51-35.224c6.669-4.441,11.209-11.215,12.782-19.074C512.981,354.481,511.398,346.48,506.953,339.815
	z M402.314,308.008c9.141,0,18.579-0.896,28.3-2.841c6.345-1.269,11.865-2.443,16.736-3.479c24.025-5.111,27.568-5.461,32.357-1.07
	c0.8,1.641,2.186,4.671,3.246,7.986c1.239,3.896,0.604,8.231-1.709,11.608l-0.865,1.266l-15.024,10.013
	c-30.008,20.002-79.205,28.167-146.242,24.268c-39.4-2.29-82.927-8.336-125.602-14.527c10.699-17.685,18.574-25.87,39.733-25.87
	h36.75c4.045,0,7.691-2.437,9.239-6.173c1.548-3.736,0.691-8.038-2.168-10.898l-15.28-15.28
	c-20.552-20.552-29.961-48.815-26.351-76.84C278.955,255.532,330.707,308.011,402.314,308.008z M202.187,115.363l17.424,69.693
	c-5.772,18.979-6.431,39.129-1.865,58.473c4.604,19.504,14.315,37.373,28.146,51.832h-12.646c-34.85,0-47.089,18.618-61.118,42.759
	c-3.244-0.472-40.457-5.913-42.638-5.806l-6.686,0.341c-1.087-58.827-32.59-104.433-82.806-133.119v-44.174h69.999
	c5.522,0,10-4.477,10-10c0-5.523-4.478-10-10-10H39.997v-20h162.189V115.363z M34.611,219.615
	c54.148,33.312,67.6,78.615,68.193,114.059L69.74,335.36H40.803c-14.221-11.813-21.219-29.957-20.785-54.007
	C20.357,262.455,25.606,240.439,34.611,219.615z M491.797,358.414c-0.524,2.618-2.036,4.875-4.263,6.357
	c-94.329,62.905-290.432,13.701-317.544,13.701c-2.407,0-4.755,0.877-6.593,2.482c-2.214,1.934-3.465,4.759-3.42,7.698
	c0.007,0.442,0.011,3.26,0.014,6.709H39.996v-40h30c0.17,0,0.34-0.004,0.51-0.013l59.084-3.013
	c56.045,7.433,128.171,19.891,188.362,23.389c71.466,4.158,124.791-5.125,158.495-27.591l8.318-5.544l5.546,8.322
	C491.794,353.131,492.321,355.796,491.797,358.414z"/>
<g>
</g>
<g>
</g>
<g>
</g>
<g>
</g>
<g>
</g>
<g>
</g>
<g>
</g>
<g>
</g>
<g>
</g>
<g>
</g>
<g>
</g>
<g>
</g>
<g>
</g>
<g>
</g>
<g>
</g>
</svg>
